<mxfile host="app.diagrams.net" modified="2023-03-30T03:40:59.401Z" agent="Mozilla/5.0 (Windows NT 10.0; Win64; x64) AppleWebKit/537.36 (KHTML, like Gecko) Chrome/111.0.0.0 Safari/537.36" etag="fZ7b8dwx3sLTfDGOj2pj" version="21.1.1" type="github">
  <diagram name="Page-1" id="UMADV98i5JFgTWzXtIxi">
    <mxGraphModel dx="1120" dy="452" grid="1" gridSize="10" guides="1" tooltips="1" connect="1" arrows="1" fold="1" page="1" pageScale="1" pageWidth="827" pageHeight="1169" math="0" shadow="0">
      <root>
        <mxCell id="0" />
        <mxCell id="1" parent="0" />
        <mxCell id="pZzHoeOJ069ep5u9NYxu-22" style="edgeStyle=orthogonalEdgeStyle;rounded=0;orthogonalLoop=1;jettySize=auto;html=1;entryX=0;entryY=0.5;entryDx=0;entryDy=0;" parent="1" source="pZzHoeOJ069ep5u9NYxu-19" target="pZzHoeOJ069ep5u9NYxu-21" edge="1">
          <mxGeometry relative="1" as="geometry">
            <mxPoint x="230" y="20" as="targetPoint" />
          </mxGeometry>
        </mxCell>
        <mxCell id="pZzHoeOJ069ep5u9NYxu-19" value="Service" style="text;html=1;strokeColor=none;fillColor=none;align=center;verticalAlign=middle;whiteSpace=wrap;rounded=0;" parent="1" vertex="1">
          <mxGeometry x="60" y="10" width="60" height="30" as="geometry" />
        </mxCell>
        <mxCell id="pZzHoeOJ069ep5u9NYxu-24" style="edgeStyle=orthogonalEdgeStyle;rounded=0;orthogonalLoop=1;jettySize=auto;html=1;" parent="1" source="pZzHoeOJ069ep5u9NYxu-21" target="pZzHoeOJ069ep5u9NYxu-23" edge="1">
          <mxGeometry relative="1" as="geometry" />
        </mxCell>
        <mxCell id="pZzHoeOJ069ep5u9NYxu-21" value="Service Name" style="text;html=1;strokeColor=none;fillColor=none;align=center;verticalAlign=middle;whiteSpace=wrap;rounded=0;" parent="1" vertex="1">
          <mxGeometry x="160" y="10" width="100" height="30" as="geometry" />
        </mxCell>
        <mxCell id="pZzHoeOJ069ep5u9NYxu-30" style="edgeStyle=orthogonalEdgeStyle;rounded=0;orthogonalLoop=1;jettySize=auto;html=1;exitX=0.5;exitY=1;exitDx=0;exitDy=0;" parent="1" source="pZzHoeOJ069ep5u9NYxu-23" target="pZzHoeOJ069ep5u9NYxu-25" edge="1">
          <mxGeometry relative="1" as="geometry" />
        </mxCell>
        <mxCell id="pZzHoeOJ069ep5u9NYxu-23" value="Base Folder" style="text;html=1;strokeColor=none;fillColor=none;align=center;verticalAlign=middle;whiteSpace=wrap;rounded=0;" parent="1" vertex="1">
          <mxGeometry x="320" y="10" width="120" height="30" as="geometry" />
        </mxCell>
        <mxCell id="pZzHoeOJ069ep5u9NYxu-38" style="edgeStyle=orthogonalEdgeStyle;rounded=0;orthogonalLoop=1;jettySize=auto;html=1;exitX=1;exitY=0;exitDx=0;exitDy=0;entryX=0.5;entryY=0;entryDx=0;entryDy=0;" parent="1" source="pZzHoeOJ069ep5u9NYxu-25" target="pZzHoeOJ069ep5u9NYxu-35" edge="1">
          <mxGeometry relative="1" as="geometry" />
        </mxCell>
        <mxCell id="pZzHoeOJ069ep5u9NYxu-40" style="edgeStyle=orthogonalEdgeStyle;rounded=0;orthogonalLoop=1;jettySize=auto;html=1;exitX=0.5;exitY=1;exitDx=0;exitDy=0;entryX=0.5;entryY=0;entryDx=0;entryDy=0;" parent="1" source="pZzHoeOJ069ep5u9NYxu-25" target="pZzHoeOJ069ep5u9NYxu-33" edge="1">
          <mxGeometry relative="1" as="geometry" />
        </mxCell>
        <mxCell id="pZzHoeOJ069ep5u9NYxu-41" style="edgeStyle=orthogonalEdgeStyle;rounded=0;orthogonalLoop=1;jettySize=auto;html=1;exitX=0;exitY=0;exitDx=0;exitDy=0;entryX=0.117;entryY=-0.033;entryDx=0;entryDy=0;entryPerimeter=0;" parent="1" source="pZzHoeOJ069ep5u9NYxu-25" target="pZzHoeOJ069ep5u9NYxu-31" edge="1">
          <mxGeometry relative="1" as="geometry">
            <mxPoint x="20" y="140" as="targetPoint" />
          </mxGeometry>
        </mxCell>
        <mxCell id="pZzHoeOJ069ep5u9NYxu-42" style="edgeStyle=orthogonalEdgeStyle;rounded=0;orthogonalLoop=1;jettySize=auto;html=1;exitX=0;exitY=0.5;exitDx=0;exitDy=0;entryX=0.45;entryY=-0.067;entryDx=0;entryDy=0;entryPerimeter=0;" parent="1" source="pZzHoeOJ069ep5u9NYxu-25" target="pZzHoeOJ069ep5u9NYxu-32" edge="1">
          <mxGeometry relative="1" as="geometry" />
        </mxCell>
        <mxCell id="pZzHoeOJ069ep5u9NYxu-51" style="edgeStyle=orthogonalEdgeStyle;rounded=0;orthogonalLoop=1;jettySize=auto;html=1;exitX=1;exitY=1;exitDx=0;exitDy=0;entryX=0.5;entryY=0;entryDx=0;entryDy=0;" parent="1" source="pZzHoeOJ069ep5u9NYxu-25" target="pZzHoeOJ069ep5u9NYxu-34" edge="1">
          <mxGeometry relative="1" as="geometry" />
        </mxCell>
        <mxCell id="pZzHoeOJ069ep5u9NYxu-52" style="edgeStyle=orthogonalEdgeStyle;rounded=0;orthogonalLoop=1;jettySize=auto;html=1;exitX=1;exitY=0.75;exitDx=0;exitDy=0;entryX=0.25;entryY=0;entryDx=0;entryDy=0;" parent="1" source="pZzHoeOJ069ep5u9NYxu-25" target="pZzHoeOJ069ep5u9NYxu-45" edge="1">
          <mxGeometry relative="1" as="geometry" />
        </mxCell>
        <mxCell id="pZzHoeOJ069ep5u9NYxu-56" style="edgeStyle=orthogonalEdgeStyle;rounded=0;orthogonalLoop=1;jettySize=auto;html=1;exitX=1;exitY=0.25;exitDx=0;exitDy=0;" parent="1" source="pZzHoeOJ069ep5u9NYxu-25" target="pZzHoeOJ069ep5u9NYxu-55" edge="1">
          <mxGeometry relative="1" as="geometry" />
        </mxCell>
        <mxCell id="pZzHoeOJ069ep5u9NYxu-58" style="edgeStyle=orthogonalEdgeStyle;rounded=0;orthogonalLoop=1;jettySize=auto;html=1;exitX=0;exitY=0.25;exitDx=0;exitDy=0;" parent="1" source="pZzHoeOJ069ep5u9NYxu-25" target="pZzHoeOJ069ep5u9NYxu-57" edge="1">
          <mxGeometry relative="1" as="geometry" />
        </mxCell>
        <mxCell id="pZzHoeOJ069ep5u9NYxu-25" value="Table Name" style="whiteSpace=wrap;html=1;" parent="1" vertex="1">
          <mxGeometry x="320" y="100" width="120" height="35" as="geometry" />
        </mxCell>
        <mxCell id="YP6eUnewBaTXaxf08kpu-2" value="" style="edgeStyle=orthogonalEdgeStyle;rounded=0;orthogonalLoop=1;jettySize=auto;html=1;" edge="1" parent="1" source="pZzHoeOJ069ep5u9NYxu-31" target="YP6eUnewBaTXaxf08kpu-1">
          <mxGeometry relative="1" as="geometry">
            <Array as="points">
              <mxPoint x="40" y="260" />
              <mxPoint x="40" y="260" />
            </Array>
          </mxGeometry>
        </mxCell>
        <mxCell id="YP6eUnewBaTXaxf08kpu-6" style="edgeStyle=orthogonalEdgeStyle;rounded=0;orthogonalLoop=1;jettySize=auto;html=1;exitX=0.75;exitY=1;exitDx=0;exitDy=0;entryX=0.25;entryY=0;entryDx=0;entryDy=0;" edge="1" parent="1" source="pZzHoeOJ069ep5u9NYxu-31" target="YP6eUnewBaTXaxf08kpu-5">
          <mxGeometry relative="1" as="geometry" />
        </mxCell>
        <mxCell id="pZzHoeOJ069ep5u9NYxu-31" value="Data" style="whiteSpace=wrap;html=1;" parent="1" vertex="1">
          <mxGeometry x="10" y="210" width="120" height="30" as="geometry" />
        </mxCell>
        <mxCell id="YP6eUnewBaTXaxf08kpu-9" style="edgeStyle=orthogonalEdgeStyle;rounded=0;orthogonalLoop=1;jettySize=auto;html=1;exitX=0.5;exitY=1;exitDx=0;exitDy=0;entryX=0.129;entryY=0;entryDx=0;entryDy=0;entryPerimeter=0;" edge="1" parent="1">
          <mxGeometry relative="1" as="geometry">
            <mxPoint x="210" y="240" as="sourcePoint" />
            <mxPoint x="209.02999999999997" y="320" as="targetPoint" />
            <Array as="points">
              <mxPoint x="209" y="240" />
            </Array>
          </mxGeometry>
        </mxCell>
        <mxCell id="pZzHoeOJ069ep5u9NYxu-32" value="Dtos" style="whiteSpace=wrap;html=1;" parent="1" vertex="1">
          <mxGeometry x="150" y="210" width="120" height="30" as="geometry" />
        </mxCell>
        <mxCell id="YP6eUnewBaTXaxf08kpu-11" value="" style="edgeStyle=orthogonalEdgeStyle;rounded=0;orthogonalLoop=1;jettySize=auto;html=1;" edge="1" parent="1">
          <mxGeometry relative="1" as="geometry">
            <mxPoint x="333" y="240" as="sourcePoint" />
            <mxPoint x="323" y="320" as="targetPoint" />
            <Array as="points">
              <mxPoint x="333" y="280" />
              <mxPoint x="323" y="280" />
            </Array>
          </mxGeometry>
        </mxCell>
        <mxCell id="YP6eUnewBaTXaxf08kpu-13" style="edgeStyle=orthogonalEdgeStyle;rounded=0;orthogonalLoop=1;jettySize=auto;html=1;exitX=0.75;exitY=1;exitDx=0;exitDy=0;entryX=0.5;entryY=0;entryDx=0;entryDy=0;" edge="1" parent="1" source="pZzHoeOJ069ep5u9NYxu-33" target="YP6eUnewBaTXaxf08kpu-12">
          <mxGeometry relative="1" as="geometry" />
        </mxCell>
        <mxCell id="pZzHoeOJ069ep5u9NYxu-33" value="Exceptions" style="whiteSpace=wrap;html=1;" parent="1" vertex="1">
          <mxGeometry x="320" y="210" width="120" height="30" as="geometry" />
        </mxCell>
        <mxCell id="YP6eUnewBaTXaxf08kpu-15" value="" style="edgeStyle=orthogonalEdgeStyle;rounded=0;orthogonalLoop=1;jettySize=auto;html=1;" edge="1" parent="1" source="pZzHoeOJ069ep5u9NYxu-34" target="YP6eUnewBaTXaxf08kpu-14">
          <mxGeometry relative="1" as="geometry" />
        </mxCell>
        <mxCell id="YP6eUnewBaTXaxf08kpu-19" style="edgeStyle=orthogonalEdgeStyle;rounded=0;orthogonalLoop=1;jettySize=auto;html=1;exitX=0.25;exitY=1;exitDx=0;exitDy=0;entryX=0.5;entryY=0;entryDx=0;entryDy=0;" edge="1" parent="1" source="pZzHoeOJ069ep5u9NYxu-34" target="YP6eUnewBaTXaxf08kpu-16">
          <mxGeometry relative="1" as="geometry" />
        </mxCell>
        <mxCell id="YP6eUnewBaTXaxf08kpu-20" style="edgeStyle=orthogonalEdgeStyle;rounded=0;orthogonalLoop=1;jettySize=auto;html=1;exitX=0.5;exitY=1;exitDx=0;exitDy=0;entryX=0.5;entryY=0;entryDx=0;entryDy=0;" edge="1" parent="1" source="pZzHoeOJ069ep5u9NYxu-34" target="YP6eUnewBaTXaxf08kpu-17">
          <mxGeometry relative="1" as="geometry" />
        </mxCell>
        <mxCell id="YP6eUnewBaTXaxf08kpu-21" style="edgeStyle=orthogonalEdgeStyle;rounded=0;orthogonalLoop=1;jettySize=auto;html=1;exitX=0.75;exitY=1;exitDx=0;exitDy=0;entryX=0.25;entryY=0;entryDx=0;entryDy=0;" edge="1" parent="1" source="pZzHoeOJ069ep5u9NYxu-34" target="YP6eUnewBaTXaxf08kpu-18">
          <mxGeometry relative="1" as="geometry" />
        </mxCell>
        <mxCell id="pZzHoeOJ069ep5u9NYxu-34" value="Features" style="whiteSpace=wrap;html=1;" parent="1" vertex="1">
          <mxGeometry x="520" y="210" width="120" height="30" as="geometry" />
        </mxCell>
        <mxCell id="pZzHoeOJ069ep5u9NYxu-59" style="edgeStyle=orthogonalEdgeStyle;rounded=0;orthogonalLoop=1;jettySize=auto;html=1;exitX=0.5;exitY=1;exitDx=0;exitDy=0;entryX=0.5;entryY=0;entryDx=0;entryDy=0;" parent="1" source="pZzHoeOJ069ep5u9NYxu-35" target="u61qnfWPwvR5sV4NFVFH-3" edge="1">
          <mxGeometry relative="1" as="geometry">
            <mxPoint x="821" y="350" as="targetPoint" />
          </mxGeometry>
        </mxCell>
        <mxCell id="pZzHoeOJ069ep5u9NYxu-35" value="Models" style="whiteSpace=wrap;html=1;" parent="1" vertex="1">
          <mxGeometry x="930" y="220" width="120" height="30" as="geometry" />
        </mxCell>
        <mxCell id="YP6eUnewBaTXaxf08kpu-23" value="" style="edgeStyle=orthogonalEdgeStyle;rounded=0;orthogonalLoop=1;jettySize=auto;html=1;" edge="1" parent="1" source="pZzHoeOJ069ep5u9NYxu-45" target="YP6eUnewBaTXaxf08kpu-22">
          <mxGeometry relative="1" as="geometry" />
        </mxCell>
        <mxCell id="pZzHoeOJ069ep5u9NYxu-45" value="ValueObjects" style="whiteSpace=wrap;html=1;" parent="1" vertex="1">
          <mxGeometry x="680" y="210" width="120" height="30" as="geometry" />
        </mxCell>
        <mxCell id="pZzHoeOJ069ep5u9NYxu-55" value="config" style="text;html=1;strokeColor=none;fillColor=none;align=center;verticalAlign=middle;whiteSpace=wrap;rounded=0;" parent="1" vertex="1">
          <mxGeometry x="800" y="93" width="120" height="30" as="geometry" />
        </mxCell>
        <mxCell id="pZzHoeOJ069ep5u9NYxu-57" value="Mapping" style="text;html=1;strokeColor=none;fillColor=none;align=center;verticalAlign=middle;whiteSpace=wrap;rounded=0;" parent="1" vertex="1">
          <mxGeometry x="30" y="93" width="120" height="30" as="geometry" />
        </mxCell>
        <mxCell id="u61qnfWPwvR5sV4NFVFH-3" value="DB Enity" style="swimlane;fontStyle=0;childLayout=stackLayout;horizontal=1;startSize=26;horizontalStack=0;resizeParent=1;resizeParentMax=0;resizeLast=0;collapsible=1;marginBottom=0;align=center;fontSize=14;" parent="1" vertex="1">
          <mxGeometry x="990" y="310" width="160" height="116" as="geometry" />
        </mxCell>
        <mxCell id="u61qnfWPwvR5sV4NFVFH-4" value="Propertys" style="text;strokeColor=none;fillColor=none;spacingLeft=4;spacingRight=4;overflow=hidden;rotatable=0;points=[[0,0.5],[1,0.5]];portConstraint=eastwest;fontSize=12;" parent="u61qnfWPwvR5sV4NFVFH-3" vertex="1">
          <mxGeometry y="26" width="160" height="30" as="geometry" />
        </mxCell>
        <mxCell id="u61qnfWPwvR5sV4NFVFH-5" value="Methods" style="text;strokeColor=none;fillColor=none;spacingLeft=4;spacingRight=4;overflow=hidden;rotatable=0;points=[[0,0.5],[1,0.5]];portConstraint=eastwest;fontSize=12;" parent="u61qnfWPwvR5sV4NFVFH-3" vertex="1">
          <mxGeometry y="56" width="160" height="30" as="geometry" />
        </mxCell>
        <mxCell id="u61qnfWPwvR5sV4NFVFH-6" value="Private Methods" style="text;strokeColor=none;fillColor=none;spacingLeft=4;spacingRight=4;overflow=hidden;rotatable=0;points=[[0,0.5],[1,0.5]];portConstraint=eastwest;fontSize=12;" parent="u61qnfWPwvR5sV4NFVFH-3" vertex="1">
          <mxGeometry y="86" width="160" height="30" as="geometry" />
        </mxCell>
        <mxCell id="YP6eUnewBaTXaxf08kpu-1" value="Entity Configuration" style="whiteSpace=wrap;html=1;" vertex="1" parent="1">
          <mxGeometry x="10" y="320" width="100" height="30" as="geometry" />
        </mxCell>
        <mxCell id="YP6eUnewBaTXaxf08kpu-5" value="DataSeeder" style="whiteSpace=wrap;html=1;" vertex="1" parent="1">
          <mxGeometry x="120" y="320" width="70" height="30" as="geometry" />
        </mxCell>
        <mxCell id="YP6eUnewBaTXaxf08kpu-8" value="Entity Dtos" style="whiteSpace=wrap;html=1;" vertex="1" parent="1">
          <mxGeometry x="200" y="320" width="70" height="30" as="geometry" />
        </mxCell>
        <mxCell id="YP6eUnewBaTXaxf08kpu-10" value="Application" style="whiteSpace=wrap;html=1;" vertex="1" parent="1">
          <mxGeometry x="285" y="320" width="80" height="30" as="geometry" />
        </mxCell>
        <mxCell id="YP6eUnewBaTXaxf08kpu-12" value="Domain" style="whiteSpace=wrap;html=1;" vertex="1" parent="1">
          <mxGeometry x="374" y="320" width="80" height="30" as="geometry" />
        </mxCell>
        <mxCell id="YP6eUnewBaTXaxf08kpu-14" value="C" style="whiteSpace=wrap;html=1;" vertex="1" parent="1">
          <mxGeometry x="470" y="320" width="40" height="30" as="geometry" />
        </mxCell>
        <mxCell id="YP6eUnewBaTXaxf08kpu-16" value="R" style="whiteSpace=wrap;html=1;" vertex="1" parent="1">
          <mxGeometry x="520" y="320" width="40" height="30" as="geometry" />
        </mxCell>
        <mxCell id="YP6eUnewBaTXaxf08kpu-17" value="U" style="whiteSpace=wrap;html=1;" vertex="1" parent="1">
          <mxGeometry x="580" y="320" width="40" height="30" as="geometry" />
        </mxCell>
        <mxCell id="YP6eUnewBaTXaxf08kpu-18" value="D" style="whiteSpace=wrap;html=1;" vertex="1" parent="1">
          <mxGeometry x="630" y="320" width="40" height="30" as="geometry" />
        </mxCell>
        <mxCell id="YP6eUnewBaTXaxf08kpu-22" value="Make a Data type" style="whiteSpace=wrap;html=1;" vertex="1" parent="1">
          <mxGeometry x="680" y="320" width="120" height="30" as="geometry" />
        </mxCell>
        <mxCell id="YP6eUnewBaTXaxf08kpu-27" value="Just DB Entity" style="text;html=1;strokeColor=none;fillColor=none;align=center;verticalAlign=middle;whiteSpace=wrap;rounded=0;" vertex="1" parent="1">
          <mxGeometry x="836" y="336" width="108" height="30" as="geometry" />
        </mxCell>
        <mxCell id="YP6eUnewBaTXaxf08kpu-30" style="edgeStyle=orthogonalEdgeStyle;rounded=0;orthogonalLoop=1;jettySize=auto;html=1;exitX=0;exitY=0.5;exitDx=0;exitDy=0;" edge="1" parent="1" source="u61qnfWPwvR5sV4NFVFH-4" target="YP6eUnewBaTXaxf08kpu-27">
          <mxGeometry relative="1" as="geometry">
            <mxPoint x="960" y="351" as="targetPoint" />
          </mxGeometry>
        </mxCell>
        <mxCell id="YP6eUnewBaTXaxf08kpu-31" value="CRUD Method" style="text;html=1;strokeColor=none;fillColor=none;align=center;verticalAlign=middle;whiteSpace=wrap;rounded=0;" vertex="1" parent="1">
          <mxGeometry x="838" y="366" width="108" height="30" as="geometry" />
        </mxCell>
        <mxCell id="YP6eUnewBaTXaxf08kpu-32" style="edgeStyle=orthogonalEdgeStyle;rounded=0;orthogonalLoop=1;jettySize=auto;html=1;exitX=0;exitY=0.5;exitDx=0;exitDy=0;" edge="1" parent="1" source="u61qnfWPwvR5sV4NFVFH-5" target="YP6eUnewBaTXaxf08kpu-31">
          <mxGeometry relative="1" as="geometry" />
        </mxCell>
        <mxCell id="YP6eUnewBaTXaxf08kpu-33" value="Property Validate Method" style="text;html=1;strokeColor=none;fillColor=none;align=center;verticalAlign=middle;whiteSpace=wrap;rounded=0;" vertex="1" parent="1">
          <mxGeometry x="837" y="396" width="108" height="30" as="geometry" />
        </mxCell>
        <mxCell id="YP6eUnewBaTXaxf08kpu-34" style="edgeStyle=orthogonalEdgeStyle;rounded=0;orthogonalLoop=1;jettySize=auto;html=1;exitX=0;exitY=0.5;exitDx=0;exitDy=0;" edge="1" parent="1" source="u61qnfWPwvR5sV4NFVFH-6" target="YP6eUnewBaTXaxf08kpu-33">
          <mxGeometry relative="1" as="geometry" />
        </mxCell>
      </root>
    </mxGraphModel>
  </diagram>
</mxfile>
